<svg width="274" height="252" viewBox="0 0 274 252" fill="none" xmlns="http://www.w3.org/2000/svg">
<mask id="mask0_1414_4" style="mask-type:luminance" maskUnits="userSpaceOnUse" x="0" y="0" width="274" height="252">
<path d="M273.533 0H0V252H273.533V0Z" fill="white"/>
</mask>
<g mask="url(#mask0_1414_4)">
<path d="M266.946 99.6005L265.176 96.6508L226.634 29.9883L226.339 29.4967C216.605 11.897 197.923 0 176.489 0H96.7498C75.2172 0 56.4377 11.9953 46.8021 29.595L46.6054 29.89L7.37484 97.8307L6.58825 99.2072C2.3604 107.171 -0.0976562 116.315 -0.0976562 126.049C-0.0976562 135.783 2.3604 144.829 6.58825 152.891L7.37484 154.268L46.6054 222.208L46.8021 222.503C56.4377 240.103 75.2172 252.098 96.7498 252.098H176.489C197.923 252.098 216.605 240.201 226.339 222.602L226.634 222.11L265.176 155.448L266.946 152.498C271.075 144.632 273.435 135.586 273.435 126.049C273.533 116.414 271.075 107.466 266.946 99.6005Z" fill="#6852EC"/>
</g>
<mask id="mask1_1414_4" style="mask-type:luminance" maskUnits="userSpaceOnUse" x="0" y="0" width="274" height="252">
<path d="M273.533 0H0V252H273.533V0Z" fill="white"/>
</mask>
<g mask="url(#mask1_1414_4)">
<path d="M144.73 113.364H117.2C116.512 113.364 116.118 112.971 116.118 112.283V66.3664C116.118 64.3999 115.037 63.3184 113.07 63.3184H93.8976C91.9312 63.3184 90.8496 64.3999 90.8496 66.3664V185.533C90.8496 187.499 91.9312 188.581 93.8976 188.581H113.07C115.037 188.581 116.118 187.499 116.118 185.533V139.616C116.118 138.928 116.512 138.535 117.2 138.535H144.73C146.697 138.535 147.778 137.453 147.778 135.487V116.314C147.778 114.446 146.697 113.364 144.73 113.364Z" fill="white"/>
</g>
<mask id="mask2_1414_4" style="mask-type:luminance" maskUnits="userSpaceOnUse" x="0" y="0" width="274" height="252">
<path d="M273.533 0H0V252H273.533V0Z" fill="white"/>
</mask>
<g mask="url(#mask2_1414_4)">
<path d="M159.38 63.418H179.635C181.601 63.418 182.683 64.4995 182.683 66.466V185.633C182.683 187.599 181.601 188.681 179.635 188.681H160.462C158.495 188.681 157.414 187.599 157.414 185.633V88.0969C157.414 87.4086 156.922 86.8187 156.136 87.0153L140.404 90.26C138.438 90.6532 136.963 89.5717 136.963 87.6053V74.0368C136.963 72.4636 137.651 71.1854 139.323 70.5955L155.644 64.1062C156.824 63.5163 157.906 63.418 159.38 63.418Z" fill="white"/>
</g>
</svg>
